<svg width="81" height="88" viewBox="0 0 81 88" fill="none" xmlns="http://www.w3.org/2000/svg">
<path fill-rule="evenodd" clip-rule="evenodd" d="M26.0164 86.2255L26.0164 24.833L56.5216 24.833C57.5368 24.833 58.3606 24.0454 58.3606 23.0743L58.3606 2.14112C58.3606 1.16997 57.5368 0.381836 56.5216 0.381836L2.38836 0.381836C1.37322 0.381836 0.549389 1.16997 0.549389 2.14112L0.549389 86.2255C0.549389 87.1966 1.37322 87.9848 2.38836 87.9848L24.1774 87.9848C25.1925 87.9848 26.0164 87.1966 26.0164 86.2255ZM54.6828 3.89953L54.6828 21.3145L24.9316 21.3145L6.81989 3.89953L54.6828 3.89953ZM4.22738 6.39701L4.22738 84.4659L22.3391 84.7121V78.9067H17.7788C16.7636 78.9067 15.9398 78.1191 15.9398 77.148C15.9398 76.1768 16.7636 75.3887 17.7788 75.3887H22.3391V71.8707H17.7788C16.7636 71.8707 15.9398 71.0826 15.9398 70.1115C15.9398 69.1403 16.7636 68.3522 17.7788 68.3522H22.3391V64.8342L13.8809 64.8342C12.8657 64.8342 12.0419 64.0461 12.0419 63.0749C12.0419 62.1044 12.8657 61.3162 13.8809 61.3162H22.3391V57.7977H17.7788C16.7636 57.7977 15.9398 57.0096 15.9398 56.039C15.9398 55.0678 16.7636 54.2797 17.7788 54.2797H22.3391V50.7618H17.7788C16.7636 50.7618 15.9398 49.9736 15.9398 49.0025C15.9398 48.0313 16.7636 47.2432 17.7788 47.2432H22.3391V43.7252H13.8809C12.8657 43.7252 12.0419 42.9371 12.0419 41.966C12.0419 40.9948 12.8657 40.2073 13.8809 40.2073H22.3391V36.6887H17.7788C16.7636 36.6887 15.9398 35.9006 15.9398 34.9294C15.9398 33.9589 16.7636 33.1707 17.7788 33.1707H22.3391V29.6522H17.7788C16.7636 29.6522 15.9398 28.8646 15.9398 27.8935C15.9398 26.9223 16.7636 26.1342 17.7788 26.1342H22.3391V23.7245L4.22738 6.39701Z" fill="#FF792D"/>
<path fill-rule="evenodd" clip-rule="evenodd" d="M28.1411 44.698L28.1412 44.7027L28.1411 44.7161V44.698ZM28.1412 44.7027C28.1459 45.0795 28.2752 45.446 28.5099 45.7473L41.5477 62.8893C41.5477 62.8893 41.6952 62.9959 41.7689 63.0671C41.7976 63.0948 41.8179 63.1225 41.8375 63.1491C41.8681 63.1909 41.8968 63.2302 41.9533 63.2629L67.4933 81.383C69.3907 83.0102 72.0924 83.4333 74.4266 82.4678C75.6565 81.879 76.7096 80.9992 77.4883 79.9071L79.0369 77.8268C80.0456 76.5961 80.6268 75.0901 80.6968 73.5232C80.6212 71.3434 79.4262 69.3425 77.5064 68.1884L51.8926 50.1394C51.7876 50.081 51.6751 50.0346 51.5607 49.9972C51.5607 49.9972 51.4501 49.9972 51.3945 49.8905L30.5753 43.0263C29.611 42.7117 28.5636 43.2113 28.2393 44.1412C28.1757 44.322 28.1427 44.5114 28.1412 44.7027ZM75.3304 71.1047C76.2691 71.6145 76.8997 72.5251 77.0271 73.5581C76.9497 74.3711 76.6159 75.1407 76.0685 75.7632L74.5192 77.7906C74.1099 78.3914 73.553 78.888 72.8962 79.2309L72.8836 79.2364C72.5391 79.3843 71.527 79.8191 69.6877 78.5198L68.0285 77.3458L70.8495 73.6473L73.6524 69.9307L75.3304 71.1047ZM68.9502 70.0914L70.6838 67.8151L51.247 54.0691L45.6043 61.4667L65.0411 75.2128L66.7741 72.954L51.7639 62.2845C51.6989 62.2436 51.6382 62.2008 51.5795 62.1526C50.7977 61.5252 50.6921 60.403 51.3433 59.6491C51.9938 58.8952 53.1575 58.7921 53.9393 59.4213L68.9502 70.0914ZM47.8728 52.4681L43.0225 58.8345L40.017 54.8865L43.0593 50.8855L47.8728 52.4681ZM37.7306 51.8818L39.4086 49.6773L34.9459 48.2189L37.7306 51.8818Z" fill="#FF792D"/>
</svg>
