<svg width="91" height="90" viewBox="0 0 91 90" fill="none" xmlns="http://www.w3.org/2000/svg">
<path d="M7.0272 44.5616V11.6175H4.12743L7.60716 2.8667H13.4067L16.8864 11.6175H13.9866V44.5616M7.0272 44.5616H13.9866M7.0272 44.5616L1.80762 45.0764V48.6796L5.28734 50.2239V54.3419L1.80762 56.4009V82.1385L7.60716 88.3155H14.5666L19.2062 82.1385V56.4009L15.7265 54.3419V50.2239L18.6263 48.6796V45.0764L13.9866 44.5616M9.34702 58.4599V82.6533M9.34702 58.4599L12.2468 82.6533M9.34702 58.4599H10.072M9.34702 82.6533L12.2468 58.4599M9.34702 82.6533H9.92697M12.2468 82.6533V58.4599M12.2468 82.6533H11.5218M12.2468 58.4599H11.5218M10.7969 82.6533V58.4599M10.7969 82.6533H9.92697M10.7969 82.6533H11.5218M10.7969 58.4599H10.072M10.7969 58.4599H11.5218M10.072 58.4599L9.92697 82.6533M11.5218 82.6533V58.4599" stroke="#FF792D" stroke-width="2.65682"/>
<path d="M41.8246 44.5613V11.6172L44.7243 1.83691H45.8842L48.784 11.6172V44.5613M41.8246 44.5613H48.784M41.8246 44.5613L36.605 45.0761V48.6793L40.0847 50.2236V54.3416L36.605 56.4006V82.1382L42.4045 88.3152H49.364L54.0036 82.1382V56.4006L50.5239 54.3416V50.2236L53.4236 48.6793V45.0761L48.784 44.5613M44.1444 58.4596V82.653M44.1444 58.4596L47.0442 82.653M44.1444 58.4596H44.8693M44.1444 82.653L47.0442 58.4596M44.1444 82.653H44.7243M47.0442 82.653V58.4596M47.0442 82.653H46.3192M47.0442 58.4596H46.3192M45.5943 82.653V58.4596M45.5943 82.653H44.7243M45.5943 82.653H46.3192M45.5943 58.4596H44.8693M45.5943 58.4596H46.3192M44.8693 58.4596L44.7243 82.653M46.3192 82.653V58.4596" stroke="#FF792D" stroke-width="2.65682"/>
<path d="M76.6219 44.5614V15.2206H74.3021V1.32227H86.4811V15.2206H83.5814V44.5614M76.6219 44.5614H83.5814M76.6219 44.5614L71.4023 45.0762V48.6795L74.8821 50.2237V54.3417L71.4023 56.4007V82.1383L77.2019 88.3153H84.1613L88.801 82.1383V56.4007L85.3212 54.3417V50.2237L88.221 48.6795V45.0762L83.5814 44.5614M78.9417 58.4597V82.6531M78.9417 58.4597L81.8415 82.6531M78.9417 58.4597H79.6667M78.9417 82.6531L81.8415 58.4597M78.9417 82.6531H79.5217M81.8415 82.6531V58.4597M81.8415 82.6531H81.1166M81.8415 58.4597H81.1166M80.3916 82.6531V58.4597M80.3916 82.6531H79.5217M80.3916 82.6531H81.1166M80.3916 58.4597H79.6667M80.3916 58.4597H81.1166M79.6667 58.4597L79.5217 82.6531M81.1166 82.6531V58.4597" stroke="#FF792D" stroke-width="2.65682"/>
</svg>
