<svg width="88" height="92" viewBox="0 0 88 92" fill="none" xmlns="http://www.w3.org/2000/svg">
<path fill-rule="evenodd" clip-rule="evenodd" d="M86.2754 43.7924L82.4004 42.2385V39.7679C82.4549 24.6037 72.1942 11.0739 56.8434 6.06975V2.5877C56.8434 1.55412 55.9439 0.715332 54.8362 0.715332H33.3542C32.2465 0.715332 31.347 1.55412 31.347 2.5877V6.08815C15.9962 11.0923 5.73559 24.6221 5.79002 39.7863V42.276L1.95521 43.7924C1.2122 44.0849 0.730469 44.7644 0.730469 45.515V55.3438C0.730469 56.3768 1.62997 57.2156 2.73837 57.2156H5.34843V60.9603C5.34843 61.9932 6.24726 62.832 7.35565 62.832H14.5633C15.2478 65.1758 16.2534 67.4301 17.5544 69.5341L12.4553 74.2895C11.6763 75.0192 11.6763 76.1987 12.4553 76.929L20.9877 84.8854C21.7702 85.6119 23.0351 85.6119 23.8182 84.8854L28.9173 80.1306C31.1681 81.3437 33.5774 82.2796 36.0847 82.9198V89.6409C36.0847 90.6738 36.9842 91.5126 38.0926 91.5126H50.138C51.2464 91.5126 52.1459 90.6738 52.1459 89.6409V82.9198C54.6593 82.2815 57.0761 81.3456 59.3331 80.1306L64.4328 84.8854C65.2152 85.6119 66.4801 85.6119 67.2633 84.8854L75.7957 76.929C76.5747 76.1987 76.5747 75.0192 75.7957 74.2895L70.696 69.5341C71.9969 67.4301 73.0033 65.1758 73.6878 62.832H80.8947C82.0031 62.832 82.9026 61.9932 82.9026 60.9603V57.2156H85.5126C86.621 57.2156 87.5199 56.3768 87.5199 55.3438V45.515C87.5158 44.7587 87.0245 44.0792 86.2754 43.7924ZM35.3217 4.47869H52.8282V35.7613H35.3619L35.3217 4.47869ZM72.2222 59.0883H78.9073L78.8876 57.2159H60.5178C59.6019 64.2625 53.6456 69.8155 46.089 70.6708C37.0184 71.6987 28.7731 65.6743 27.6729 57.2159H9.32355V59.0883H16.0086C16.9721 59.0674 17.8131 59.6892 18.0165 60.5667C18.7166 63.4891 19.9815 66.2675 21.7506 68.7667C22.2664 69.5065 22.1561 70.4818 21.4893 71.1067L16.6911 75.5811L22.3725 80.8797L27.1708 76.4053C27.8417 75.7835 28.8874 75.6807 29.6808 76.1617C32.3766 77.798 35.3704 78.9585 38.5139 79.5879C39.4556 79.7769 40.1224 80.5612 40.1 81.4596V87.8248H48.1302V81.5161C48.1084 80.6176 48.7745 79.8328 49.7162 79.6437C52.8604 79.013 55.8536 77.8519 58.55 76.2181C59.3434 75.7365 60.3892 75.84 61.0594 76.4611L65.8577 80.9355L71.5997 75.6185L66.8014 71.1441C66.1353 70.5192 66.0244 69.544 66.5408 68.8042C68.2935 66.2897 69.538 63.4986 70.2143 60.5667C70.4171 59.6892 71.2588 59.0674 72.2222 59.0883ZM31.7682 57.2159H56.4821C55.3778 63.585 48.9452 67.9135 42.1159 66.8837C36.7876 66.0804 32.6099 62.1847 31.7485 57.2159H31.7682ZM4.72577 53.4722H83.5244V46.7886L79.6501 45.2347C78.9071 44.9428 78.4254 44.2633 78.4254 43.5127V39.768C78.4819 26.6766 69.9352 14.8859 56.8835 10.0575V37.6342C56.8835 38.6671 55.984 39.5059 54.8756 39.5059H33.3541C32.2458 39.5059 31.3469 38.6671 31.3469 37.6342V10.0575C18.317 14.8878 9.78056 26.6557 9.82479 39.7305V43.4746C9.82479 44.2259 9.34305 44.9054 8.60004 45.1973L4.72577 46.7511V53.4722Z" fill="#FF792D"/>
</svg>
