<svg width="36" height="37" viewBox="0 0 36 37" fill="none" xmlns="http://www.w3.org/2000/svg">
<path d="M25.9037 23.1734C24.9348 22.2168 23.7252 22.2168 22.7624 23.1734C22.028 23.9017 21.2936 24.6299 20.5715 25.3705C20.374 25.5742 20.2074 25.6173 19.9666 25.4816C19.4914 25.2224 18.9853 25.0126 18.5287 24.7286C16.3995 23.3894 14.6159 21.6676 13.0359 19.7297C12.2522 18.7669 11.5547 17.7362 11.0672 16.576C10.9684 16.3415 10.987 16.1872 11.1783 15.9958C11.9127 15.2861 12.6287 14.5579 13.3508 13.8297C14.3567 12.8175 14.3567 11.6326 13.3445 10.6142C12.7706 10.0342 12.1967 9.46637 11.6227 8.88618C11.0303 8.29378 10.4439 7.6951 9.8453 7.10879C8.87641 6.16454 7.66673 6.16454 6.70396 7.11494C5.96337 7.84319 5.25365 8.58996 4.50069 9.30587C3.8033 9.96618 3.45151 10.7746 3.37745 11.7189C3.26019 13.2556 3.63665 14.706 4.16742 16.1193C5.25361 19.0446 6.90762 21.6428 8.91339 24.0251C11.6227 27.2467 14.8566 29.7955 18.6398 31.6346C20.3432 32.4616 22.1082 33.0973 24.0276 33.2022C25.3484 33.2763 26.4962 32.943 27.4158 31.9123C28.0453 31.2088 28.755 30.5669 29.4216 29.8942C30.409 28.8944 30.4152 27.6848 29.4339 26.6973C28.2613 25.5186 27.0825 24.3459 25.9038 23.1734L25.9037 23.1734Z" fill="#555555"/>
<path d="M24.7237 18.255L27.001 17.8662C26.6431 15.7741 25.6555 13.8794 24.1559 12.3735C22.5698 10.7874 20.5641 9.78759 18.3546 9.479L18.0337 11.7687C19.7432 12.0094 21.2984 12.7808 22.5266 14.009C23.6869 15.1692 24.446 16.6381 24.7237 18.2551V18.255Z" fill="#555555"/>
<path d="M28.2865 8.35622C25.6574 5.7271 22.331 4.06694 18.6588 3.55469L18.3379 5.84436C21.5101 6.2887 24.3861 7.72671 26.6572 9.99167C28.8111 12.1455 30.2244 14.8672 30.7367 17.8604L33.014 17.4716C32.4153 14.0032 30.7798 10.8557 28.2865 8.35626V8.35622Z" fill="#555555"/>
</svg>
