<svg width="36" height="36" viewBox="0 0 36 36" fill="none" xmlns="http://www.w3.org/2000/svg">
<path d="M4.73832 7.00502L14.3529 16.6238C16.4498 18.7167 19.8776 18.7185 21.9763 16.6238L31.5908 7.00502C31.6877 6.9082 31.6735 6.74874 31.5612 6.67041C30.5806 5.9865 29.3875 5.58105 28.1023 5.58105H8.22703C6.9417 5.58105 5.74857 5.98657 4.76793 6.67041C4.65561 6.74874 4.6415 6.9082 4.73832 7.00502ZM2.16898 11.639C2.16898 10.6284 2.41956 9.67342 2.86095 8.83413C2.92997 8.70282 3.10492 8.67627 3.20981 8.78113L12.7026 18.274C15.7087 21.2844 20.6187 21.2861 23.6266 18.274L33.1194 8.78113C33.2243 8.67627 33.3993 8.70282 33.4683 8.83413C33.9096 9.67342 34.1602 10.6284 34.1602 11.639V24.2854C34.1602 27.6283 31.441 30.3434 28.1022 30.3434H8.227C4.88829 30.3434 2.16895 27.6282 2.16895 24.2854L2.16898 11.639Z" fill="#555555"/>
</svg>
