<svg width="36" height="37" viewBox="0 0 36 37" fill="none" xmlns="http://www.w3.org/2000/svg">
<rect width="36" height="37" fill="#1E1E1E"/>
<g clip-path="url(#clip0_0_1)">
<rect width="1440" height="6009" transform="translate(-531 -5601)" fill="white"/>
<rect width="1440" height="122" transform="translate(-531 -35.4297)" fill="#191919"/>
<path d="M17.7945 2.07181C14.5683 2.07181 11.4147 3.02847 8.73229 4.8208C6.04986 6.61314 3.95915 9.16066 2.72456 12.1412C1.48997 15.1217 1.16696 18.4014 1.79633 21.5656C2.42571 24.7297 3.97924 27.6361 6.26047 29.9174C8.54166 32.1985 11.4481 33.7521 14.6122 34.3815C17.7764 35.0108 21.0561 34.6878 24.0366 33.4532C27.0171 32.2186 29.5647 30.1279 31.357 27.4455C33.1493 24.7631 34.106 21.6095 34.106 18.3833C34.106 14.0572 32.3875 9.90837 29.3285 6.84933C26.2695 3.79033 22.1206 2.07181 17.7945 2.07181ZM11.1638 5.13391L12.0484 5.74781C12.244 5.88412 12.4026 6.06711 12.5095 6.28015L12.732 6.72501C12.8499 6.96145 13.0315 7.16031 13.2562 7.29926C13.481 7.43821 13.74 7.51179 14.0043 7.51168H15.5857C15.9631 7.51168 16.325 7.66158 16.5918 7.92843C16.8586 8.19524 17.0085 8.55711 17.0085 8.93451V8.96269C17.0087 9.22693 16.9352 9.48599 16.7962 9.71079C16.6572 9.93551 16.4584 10.1171 16.2219 10.235L12.4279 12.133C12.3749 12.1589 12.3235 12.1884 12.2745 12.2213L10.3326 13.5158C10.1265 13.6535 9.95969 13.8423 9.84847 14.0637L9.56004 14.6436C9.4604 14.8406 9.40841 15.0585 9.40841 15.2793C9.40841 15.5002 9.46037 15.718 9.56004 15.9151C9.69336 16.1825 9.73924 16.4849 9.69128 16.7797C9.64325 17.0746 9.50371 17.3469 9.2924 17.5581L9.25014 17.6011C9.02579 17.8254 8.73285 17.9684 8.41793 18.007C8.10299 18.0458 7.78415 17.9781 7.51219 17.8146L5.03064 16.3244C4.73953 16.1494 4.52051 15.8762 4.41301 15.554L3.80283 13.7227C3.77464 13.7227 3.75462 13.7138 3.72869 13.7131C4.97316 9.9816 7.64708 6.89621 11.1638 5.13394L11.1638 5.13391ZM19.3374 23.6645C19.3375 23.7676 19.321 23.87 19.2885 23.9678L18.6323 25.9356C18.5855 26.0769 18.5062 26.2054 18.401 26.3107L17.2147 27.497C17.0804 27.631 16.9891 27.8018 16.9522 27.9879L16.3242 31.1256C16.2952 31.2685 16.234 31.4029 16.1452 31.5184C16.0564 31.6341 15.9424 31.7279 15.8119 31.7929L15.2974 32.0509C15.117 32.1405 14.913 32.1712 14.7142 32.1389C14.5154 32.1066 14.3317 32.0128 14.1889 31.8708L13.2354 30.9173C13.1625 30.844 13.1018 30.7596 13.0553 30.6674L12.4495 29.4559C12.3834 29.3224 12.3488 29.1756 12.3487 29.0266V25.9675C12.3484 25.7891 12.2986 25.6144 12.2048 25.4627C12.1111 25.311 11.9772 25.1882 11.8178 25.1081L11.023 24.7115C10.873 24.637 10.7452 24.5246 10.6523 24.3852L9.40149 22.5086C9.29622 22.3511 9.23992 22.1658 9.23985 21.9763V21.309C9.2403 21.1309 9.29021 20.9563 9.38391 20.8047C9.47764 20.6531 9.61151 20.5305 9.77073 20.4504L10.507 20.0797C10.693 19.9871 10.8436 19.8364 10.9363 19.6504L11.307 18.9142C11.3869 18.7553 11.5092 18.6216 11.6603 18.5279C11.8114 18.4342 11.9855 18.3842 12.1633 18.3833H13.5024C13.6285 18.3832 13.7534 18.408 13.8699 18.4562C13.9865 18.5044 14.0923 18.5751 14.1815 18.6643L14.3958 18.8786C14.576 19.0585 14.8202 19.1598 15.0749 19.1603H15.2736C15.5286 19.1613 15.7728 19.2633 15.9528 19.4439C16.1327 19.6246 16.2337 19.8692 16.2337 20.1242C16.2342 20.3022 16.2839 20.4768 16.3775 20.6283C16.4711 20.78 16.6049 20.9026 16.7639 20.9827L18.8102 22.0052C18.9694 22.0854 19.1033 22.2082 19.1968 22.3599C19.2904 22.5116 19.3401 22.6863 19.3404 22.8645L19.3374 23.6645ZM23.2447 9.57066C23.3109 9.41051 23.4079 9.26488 23.5302 9.1421L24.8581 7.81492C24.9582 7.71493 25.0735 7.63159 25.1999 7.56802L26.5938 6.87109C26.7155 6.81301 26.8457 6.77422 26.9793 6.75615C28.5804 8.01844 29.9049 9.59651 30.8704 11.3923H30.2149C29.8655 11.3923 29.5303 11.2537 29.2829 11.0068L29.1228 10.8466C28.8755 10.5995 28.5404 10.4606 28.1908 10.4603H27.1839C26.978 10.4598 26.7749 10.5075 26.5908 10.5997L25.2844 11.2537C25.1002 11.3456 24.897 11.3931 24.6912 11.3923H24.4562C24.2396 11.3922 24.0263 11.3386 23.8353 11.2365C23.6443 11.1343 23.4814 10.9866 23.3611 10.8065C23.2406 10.6264 23.1666 10.4194 23.1452 10.2039C23.1239 9.98834 23.156 9.77081 23.2387 9.57062H23.2447L23.2447 9.57066ZM28.8344 28.2585L28.738 28.022C28.6854 27.8634 28.6587 27.6974 28.6587 27.5304V25.8184C28.6586 25.5773 28.6025 25.3395 28.4948 25.1237L27.2685 22.6725C27.1608 22.4568 27.1047 22.2189 27.1046 21.9778V21.751C27.1046 21.4863 27.0369 21.226 26.9081 20.9948C26.7791 20.7636 26.5933 20.5692 26.3682 20.43C26.1431 20.2908 25.8861 20.2114 25.6217 20.1994C25.3572 20.1875 25.0942 20.2432 24.8574 20.3615L24.3257 20.6276C24.1102 20.7352 23.8726 20.7913 23.6318 20.7915H23.5643C23.2382 20.7909 22.9206 20.688 22.6561 20.4973C22.3916 20.3066 22.1938 20.0375 22.0904 19.7283L21.7478 18.6999C21.695 18.5414 21.6679 18.3755 21.6677 18.2084V16.962C21.6677 16.7063 21.7308 16.4545 21.8516 16.2291C21.9722 16.0037 22.1467 15.8115 22.3595 15.6697L23.7742 14.7266C23.9222 14.6278 24.0863 14.5553 24.259 14.5124L26.6657 13.9103C26.9527 13.8387 27.2541 13.8502 27.5347 13.9437L29.1955 14.4975C29.3543 14.5504 29.5205 14.5774 29.6878 14.5776H32.1116C32.7551 16.9499 32.7922 19.446 32.2196 21.8365C31.647 24.2269 30.483 26.4352 28.8344 28.2585L28.8344 28.2585Z" fill="#555555"/>
</g>
<defs>
<clipPath id="clip0_0_1">
<rect width="1440" height="6009" fill="white" transform="translate(-531 -5601)"/>
</clipPath>
</defs>
</svg>
