<svg width="949" height="819" viewBox="0 0 949 819" fill="none" xmlns="http://www.w3.org/2000/svg">
<path d="M614.658 245.63L614.528 245.792L614.398 245.63L614.011 246.147C471.765 436.703 329.839 626.85 187.447 817.667H1C102.889 682.029 204.786 546.392 306.683 410.754L307.649 409.467L309.396 407.142C411.1 271.762 512.803 136.38 614.499 1C715.776 135.822 817.06 270.645 918.344 405.467L921.349 409.467C1023.57 545.535 1125.79 681.6 1228 817.667H1041.61C958.839 706.754 876.235 596.087 793.645 485.436C734.124 405.693 674.61 325.958 615.045 246.148L614.658 245.63Z" stroke="#DFE1E7"/>
</svg>
