<svg width="30" height="26" viewBox="0 0 30 26" fill="none" xmlns="http://www.w3.org/2000/svg">
<path d="M1.68802 14.9675C1.77518 19.055 1.81877 21.0986 3.32694 22.6126C4.8351 24.1264 6.9341 24.1791 11.1321 24.2846C13.7194 24.3496 16.2813 24.3496 18.8686 24.2846C23.0666 24.1791 25.1655 24.1264 26.6738 22.6126C28.1819 21.0986 28.2255 19.055 28.3126 14.9675C28.3407 13.6532 28.3407 12.3468 28.3126 11.0326C28.2255 6.94517 28.1819 4.90148 26.6738 3.38757C25.1655 1.87366 23.0666 1.82093 18.8686 1.71545C16.2813 1.65044 13.7194 1.65044 11.1321 1.71544C6.9341 1.8209 4.8351 1.87364 3.32693 3.38756C1.81875 4.90146 1.77518 6.94515 1.68801 11.0326C1.65998 12.3468 1.65999 13.6532 1.68802 14.9675Z" stroke="#FF792D" stroke-width="1.5" stroke-linejoin="round"/>
</svg>
