<svg width="14" height="14" viewBox="0 0 14 14" fill="none" xmlns="http://www.w3.org/2000/svg">
<path d="M7.32415 3.64682C5.48215 3.64682 3.99639 5.13258 3.99639 6.97458C3.99639 8.81657 5.48215 10.3023 7.32415 10.3023C9.16615 10.3023 10.6519 8.81657 10.6519 6.97458C10.6519 5.13258 9.16615 3.64682 7.32415 3.64682ZM7.32415 9.13805C6.1338 9.13805 5.16067 8.16782 5.16067 6.97458C5.16067 5.78133 6.13091 4.8111 7.32415 4.8111C8.5174 4.8111 9.48763 5.78133 9.48763 6.97458C9.48763 8.16782 8.5145 9.13805 7.32415 9.13805ZM11.5642 3.51069C11.5642 3.94223 11.2167 4.28688 10.788 4.28688C10.3565 4.28688 10.0118 3.93933 10.0118 3.51069C10.0118 3.08205 10.3594 2.7345 10.788 2.7345C11.2167 2.7345 11.5642 3.08205 11.5642 3.51069ZM13.7682 4.29847C13.719 3.25872 13.4815 2.33772 12.7198 1.57891C11.961 0.820101 11.04 0.582611 10.0003 0.530479C8.92866 0.469658 5.71675 0.469658 4.64515 0.530479C3.6083 0.579715 2.6873 0.817205 1.92559 1.57602C1.16388 2.33483 0.929291 3.25583 0.877158 4.29557C0.816338 5.36717 0.816338 8.57908 0.877158 9.65069C0.926394 10.6904 1.16388 11.6114 1.92559 12.3702C2.6873 13.1291 3.6054 13.3665 4.64515 13.4187C5.71675 13.4795 8.92866 13.4795 10.0003 13.4187C11.04 13.3694 11.961 13.1319 12.7198 12.3702C13.4786 11.6114 13.7161 10.6904 13.7682 9.65069C13.8291 8.57908 13.8291 5.37007 13.7682 4.29847ZM12.3839 10.8005C12.1579 11.3681 11.7206 11.8055 11.1501 12.0343C10.2957 12.3731 8.26832 12.2949 7.32415 12.2949C6.37998 12.2949 4.34973 12.3702 3.49824 12.0343C2.93058 11.8084 2.49325 11.371 2.26445 10.8005C1.92559 9.9461 2.00379 7.91874 2.00379 6.97458C2.00379 6.03041 1.92849 4.00015 2.26445 3.14866C2.49036 2.58101 2.92768 2.14368 3.49824 1.91487C4.35263 1.57602 6.37998 1.65421 7.32415 1.65421C8.26832 1.65421 10.2986 1.57891 11.1501 1.91487C11.7177 2.14078 12.1551 2.57811 12.3839 3.14866C12.7227 4.00305 12.6445 6.03041 12.6445 6.97458C12.6445 7.91874 12.7227 9.949 12.3839 10.8005Z" fill="#FF792D"/>
</svg>
