<svg width="43" height="43" viewBox="0 0 43 43" fill="none" xmlns="http://www.w3.org/2000/svg">
<path d="M26.875 17.0208C26.875 19.9894 24.4686 22.3958 21.5 22.3958C18.5314 22.3958 16.125 19.9894 16.125 17.0208C16.125 14.0522 18.5314 11.6458 21.5 11.6458C24.4686 11.6458 26.875 14.0522 26.875 17.0208Z" stroke="#FF792D" stroke-width="2.01562"/>
<path d="M21.5 3.58325C28.772 3.58325 34.9375 9.72514 34.9375 17.1764C34.9375 24.7464 28.6717 30.0587 22.8841 33.6711C22.4623 33.9138 21.9854 34.0416 21.5 34.0416C21.0146 34.0416 20.5377 33.9138 20.1159 33.6711C14.3392 30.0234 8.0625 24.7726 8.0625 17.1764C8.0625 9.72514 14.228 3.58325 21.5 3.58325Z" stroke="#FF792D" stroke-width="2.01562"/>
<path d="M32.25 35.8333C32.25 37.8123 27.437 39.4166 21.5 39.4166C15.5629 39.4166 10.75 37.8123 10.75 35.8333" stroke="#FF792D" stroke-width="2.01562" stroke-linecap="round"/>
</svg>
