<svg width="33" height="32" viewBox="0 0 33 32" fill="none" xmlns="http://www.w3.org/2000/svg">
<g clip-path="url(#clip0_20_686)">
<path d="M31.6726 16.251C30.9823 16.251 30.4227 15.6914 30.4227 15.0011C30.4227 8.10944 24.8159 2.50258 17.9242 2.50258C17.2339 2.50258 16.6743 1.94302 16.6743 1.25273C16.6743 0.562432 17.2339 0.00287113 17.9242 0.00287113C25.986 -0.163672 33.0891 6.93938 32.9223 15.0013C32.9224 15.6914 32.3629 16.251 31.6726 16.251ZM22.9236 15.0011C22.9236 12.2445 20.6808 10.0017 17.9242 10.0017C17.2339 10.0017 16.6743 10.5613 16.6743 11.2516C16.6743 11.9419 17.2339 12.5014 17.9242 12.5014C19.3025 12.5014 20.4239 13.6228 20.4239 15.0011C20.4239 15.6914 20.9834 16.251 21.6737 16.251C22.364 16.251 22.9236 15.6914 22.9236 15.0011ZM27.923 15.0011C27.923 9.48778 23.4376 5.0023 17.9242 5.0023C17.2339 5.0023 16.6743 5.56186 16.6743 6.25215C16.6743 6.94245 17.2339 7.50201 17.9242 7.50201C22.0592 7.50201 25.4233 10.8661 25.4233 15.0011C25.4233 15.6914 25.9829 16.251 26.6732 16.251C27.3634 16.251 27.923 15.6914 27.923 15.0011ZM22.9508 31.9995C23.2726 31.9923 23.5793 31.8613 23.8069 31.6337L28.3063 27.1342C28.7944 26.6461 28.7944 25.8548 28.3063 25.3667L21.5103 18.5706C21.0222 18.0825 20.2308 18.0825 19.7427 18.5706L18.0476 20.2657C16.3521 19.4506 13.4438 16.5316 12.6552 14.8392L14.3333 13.1612C14.8174 12.6957 14.8174 11.859 14.3333 11.3936L7.49623 4.55653C7.0081 4.0684 6.21676 4.0684 5.72869 4.55653L1.2917 8.99352C1.06248 9.22274 0.931241 9.53208 0.925804 9.85623C0.906431 19.0171 13.33 31.8854 22.8955 32C22.922 32 22.9407 31.9997 22.9508 31.9995ZM6.61246 7.20792L11.6819 12.2774L10.2906 13.6687C9.97539 13.9839 9.8519 14.4433 9.96657 14.8741C10.6228 17.5132 15.4183 22.3022 18.0059 22.9583C18.437 23.0741 18.8977 22.9508 19.2136 22.6349L20.6265 21.222L25.655 26.2505L22.4303 29.4751C15.4986 29.069 4.35078 19.4326 3.45451 10.3658L6.61246 7.20792Z" fill="#FF792D"/>
</g>
<defs>
<clipPath id="clip0_20_686">
<rect width="32" height="32" fill="white" transform="translate(0.924805)"/>
</clipPath>
</defs>
</svg>
