<svg width="15" height="16" viewBox="0 0 15 16" fill="none" xmlns="http://www.w3.org/2000/svg">
<path d="M14.2001 4.58195C14.0384 3.9731 13.562 3.49358 12.957 3.33085C11.8606 3.03516 7.46398 3.03516 7.46398 3.03516C7.46398 3.03516 3.06738 3.03516 1.97091 3.33085C1.366 3.49361 0.889574 3.9731 0.727875 4.58195C0.434082 5.68552 0.434082 7.98803 0.434082 7.98803C0.434082 7.98803 0.434082 10.2905 0.727875 11.3941C0.889574 12.003 1.366 12.4625 1.97091 12.6252C3.06738 12.9209 7.46398 12.9209 7.46398 12.9209C7.46398 12.9209 11.8606 12.9209 12.957 12.6252C13.562 12.4625 14.0384 12.003 14.2001 11.3941C14.4939 10.2905 14.4939 7.98803 14.4939 7.98803C14.4939 7.98803 14.4939 5.68552 14.2001 4.58195ZM6.02603 10.0785V5.89753L9.70074 7.98808L6.02603 10.0785Z" fill="#FF792D"/>
</svg>
